<?xml version="1.0" encoding="utf-8"?>
<!-- Svg Vector Icons : http://www.onlinewebfonts.com/icon -->
<!DOCTYPE svg PUBLIC "-//W3C//DTD SVG 1.1//EN" "http://www.w3.org/Graphics/SVG/1.1/DTD/svg11.dtd">
<svg version="1.1" xmlns="http://www.w3.org/2000/svg" xmlns:xlink="http://www.w3.org/1999/xlink" x="0px" y="0px" viewBox="0 0 1000 1000" enable-background="new 0 0 1000 1000" xml:space="preserve">
<metadata> Svg Vector Icons : http://www.onlinewebfonts.com/icon </metadata>
<g><g><g><g><g><path d="M949.2,459.2H295.8c-22.5,0-40.8,18.3-40.8,40.8c0,22.5,18.3,40.8,40.8,40.8h653.3c22.5,0,40.8-18.3,40.8-40.8C990,477.5,971.6,459.2,949.2,459.2z"/><path d="M295.8,214.2h653.3c22.5,0,40.8-18.3,40.8-40.8c0-22.5-18.4-40.8-40.8-40.8H295.8c-22.5,0-40.8,18.3-40.8,40.8C255,195.9,273.3,214.2,295.8,214.2z"/><path d="M949.2,785.8H295.8c-22.5,0-40.8,18.4-40.8,40.8c0,22.5,18.3,40.8,40.8,40.8h653.3c22.5,0,40.8-18.4,40.8-40.8C990,804.2,971.6,785.8,949.2,785.8z"/><circle cx="50.8" cy="173.3" r="40.8"/><circle cx="50.8" cy="500" r="40.8"/><circle cx="50.8" cy="826.7" r="40.8"/></g></g></g></g><g></g><g></g><g></g><g></g><g></g><g></g><g></g><g></g><g></g><g></g><g></g><g></g><g></g><g></g><g></g></g>
</svg>